<svg version="1.0" xmlns="http://www.w3.org/2000/svg" viewBox="0 0 152 152"><path d="M39.2 52.3c-4.9 2.3-6.2 7.3-6.2 23.2 0 15.8.7 18.5 5.6 22.4 3.4 2.6 13.7 3 17.2.5 3.3-2.3 5.2-6.7 5.2-11.9v-4.5h-10v4.3c0 4.6-1.3 6.7-4.2 6.7-2.9 0-3.8-4.2-3.8-17.3 0-14 .5-16.4 3.2-17.2 3-1 4.8 1.3 4.8 6.1v4.4h10v-4.8c0-5.6-2.8-10.8-6.6-12.2-3.4-1.3-12.3-1.2-15.2.3zm33.8 0c0 .2-2 10.4-4.5 22.7-2.5 12.3-4.5 22.7-4.5 23.2 0 .4 2.2.8 5 .8h4.9l.7-5 .7-5h7.6l.7 5 .7 5h4.8c2.7 0 4.9-.4 4.9-.8 0-.5-2-10.9-4.5-23.2-2.5-12.3-4.5-22.5-4.5-22.7 0-.2-2.7-.3-6-.3s-6 .1-6 .3zm7.8 23.9c.9 5.7.9 5.8-1.6 5.8-2.4 0-2.4-.1-1.7-5.7.4-3.1 1-6.3 1.3-7.2.7-1.8.6-2.1 2 7.1zm12.2-20.7c0 3.3.2 3.5 3.5 3.5h3.5v40h11v-40h3.5c3.3 0 3.5-.2 3.5-3.5v-3.5h-25v3.5z"/></svg>